<svg width="20" height="19" viewBox="0 0 20 19" fill="none" xmlns="http://www.w3.org/2000/svg">
<path d="M18.1766 2.84436C17.1163 1.76585 15.7108 1.10759 14.2139 0.988485C12.7171 0.869379 11.2276 1.29728 10.0145 2.1949C8.74187 1.23454 7.15781 0.799066 5.58133 0.976173C4.00486 1.15328 2.55308 1.92981 1.51835 3.14939C0.483624 4.36897 -0.0571979 5.94101 0.00479662 7.54893C0.0667912 9.15686 0.726997 10.6812 1.85246 11.8151L8.06404 18.1271C8.58419 18.6464 9.28474 18.9375 10.0145 18.9375C10.7443 18.9375 11.4449 18.6464 11.965 18.1271L18.1766 11.8151C19.3445 10.623 20 9.01049 20 7.32973C20 5.64896 19.3445 4.03647 18.1766 2.84436ZM16.7663 10.4147L10.5547 16.7165C10.484 16.7889 10.3999 16.8464 10.3072 16.8856C10.2144 16.9249 10.115 16.9451 10.0145 16.9451C9.91409 16.9451 9.81464 16.9249 9.72192 16.8856C9.62922 16.8464 9.54509 16.7889 9.4744 16.7165L3.26282 10.3842C2.47838 9.57073 2.03912 8.47793 2.03912 7.33987C2.03912 6.20182 2.47838 5.10902 3.26282 4.29551C4.06218 3.49483 5.14027 3.04587 6.26359 3.04587C7.3869 3.04587 8.46499 3.49483 9.26435 4.29551C9.35734 4.39062 9.46797 4.46612 9.58986 4.51764C9.71175 4.56916 9.84248 4.59568 9.97453 4.59568C10.1066 4.59568 10.2373 4.56916 10.3592 4.51764C10.4811 4.46612 10.5917 4.39062 10.6847 4.29551C11.4841 3.49483 12.5622 3.04587 13.6855 3.04587C14.8088 3.04587 15.8869 3.49483 16.6862 4.29551C17.4815 5.09836 17.9351 6.18524 17.9501 7.32332C17.9651 8.4614 17.5401 9.56017 16.7663 10.3842V10.4147Z" fill="#454545"/>
</svg>
