<svg width="20" height="18" viewBox="0 0 20 18" fill="none" xmlns="http://www.w3.org/2000/svg">
<path d="M18.1765 1.90682C17.1162 0.828309 15.7107 0.170048 14.2139 0.0509424C12.717 -0.0681634 11.2275 0.359738 10.0145 1.25735C8.7418 0.296996 7.15773 -0.138477 5.58126 0.0386304C4.00479 0.215737 2.55301 0.992268 1.51828 2.21185C0.483551 3.43143 -0.0572712 5.00347 0.00472335 6.61139C0.0667179 8.21932 0.726923 9.7437 1.85239 10.8776L8.06397 17.1895C8.58412 17.7089 9.28467 18 10.0145 18C10.7443 18 11.4448 17.7089 11.965 17.1895L18.1765 10.8776C19.3444 9.68544 19.9999 8.07295 19.9999 6.39218C19.9999 4.71142 19.3444 3.09892 18.1765 1.90682Z" fill="#454545"/>
</svg>
